<?xml version="1.0" encoding="UTF-8" standalone="no"?>
<!-- Created with Inkscape (http://www.inkscape.org/) -->

<svg
   width="13.04769mm"
   height="49.818501mm"
   viewBox="0 0 13.04769 49.818501"
   version="1.1"
   id="svg5"
   inkscape:version="1.2-dev (9ee32be, 2021-06-19)"
   sodipodi:docname="featured.svg"
   xmlns:inkscape="http://www.inkscape.org/namespaces/inkscape"
   xmlns:sodipodi="http://sodipodi.sourceforge.net/DTD/sodipodi-0.dtd"
   xmlns="http://www.w3.org/2000/svg"
   xmlns:svg="http://www.w3.org/2000/svg">
  <sodipodi:namedview
     id="namedview7"
     pagecolor="#ffffff"
     bordercolor="#666666"
     borderopacity="1.0"
     inkscape:pageshadow="2"
     inkscape:pageopacity="0.0"
     inkscape:pagecheckerboard="0"
     inkscape:document-units="mm"
     showgrid="false"
     inkscape:zoom="4.9754994"
     inkscape:cx="7.1349622"
     inkscape:cy="76.273751"
     inkscape:window-width="1533"
     inkscape:window-height="1003"
     inkscape:window-x="122"
     inkscape:window-y="25"
     inkscape:window-maximized="0"
     inkscape:current-layer="layer1"
     inkscape:snap-object-midpoints="true"
     inkscape:snap-center="true" />
  <defs
     id="defs2" />
  <g
     inkscape:label="Layer 1"
     inkscape:groupmode="layer"
     id="layer1"
     transform="translate(38.483338,-1265.2254)">
    <path
       id="rect2963-3"
       style="fill:#30de88;fill-opacity:1;stroke-width:0.97"
       d="m -38.483338,1265.2254 h 13.04769 v 42.4102 l -6.53976,7.4083 -6.50793,-7.4083 z"
       sodipodi:nodetypes="cccccc" />
    <g
       aria-label="featured"
       transform="scale(-1)"
       id="text3431-9"
       style="font-size:7.62693px;line-height:1.25;writing-mode:tb-rl;fill:#ffffff;stroke-width:0.190674">
      <path
         d="m 34.351496,-1299.532 v -0.037 q 0.03352,-0.1155 0.06703,-0.3017 0.03724,-0.1862 0.03724,-0.3277 0,-0.4506 -0.201101,-0.6554 -0.197376,-0.2011 -0.718748,-0.2011 h -0.141516 v 1.2624 H 32.806 v -1.2401 h -3.5714 v -0.7001 h 3.5714 v -0.473 h 0.588405 v 0.473 h 0.137791 q 0.741094,0 1.135847,0.3687 0.398477,0.3687 0.398477,1.0651 0,0.2346 -0.02234,0.4208 -0.02235,0.1899 -0.05214,0.3463 z"
         id="path4966" />
      <path
         d="m 31.241883,-1295.6068 v -3.0649 q -0.383581,0 -0.670336,0.1154 -0.28303,0.1155 -0.465511,0.3166 -0.178756,0.1936 -0.268134,0.458 -0.08938,0.2682 -0.08938,0.5885 0,0.4245 0.167584,0.8528 0.171308,0.432 0.335168,0.6144 v 0.037 h -0.763438 q -0.148963,-0.3538 -0.249514,-0.7225 -0.10055,-0.3687 -0.10055,-0.7746 0,-1.0353 0.558613,-1.6163 0.562337,-0.5809 1.593909,-0.5809 1.0204,0 1.619978,0.5549 0.599578,0.5586 0.599578,1.4673 0,0.8416 -0.49158,1.296 -0.491579,0.458 -1.396532,0.458 z m 0.536269,-0.6815 q 0.551164,-0 0.852815,-0.2793 0.301651,-0.2719 0.301651,-0.8305 0,-0.5623 -0.331443,-0.8975 -0.331444,-0.3314 -0.823023,-0.3761 z"
         id="path4968" />
      <path
         d="m 29.2346,-1291.3129 v -0.6964 h 0.443166 q -0.06331,-0.093 -0.178756,-0.2533 -0.111722,-0.1564 -0.178756,-0.3053 -0.08565,-0.1751 -0.141515,-0.4022 -0.05959,-0.2272 -0.05959,-0.5326 0,-0.5623 0.372409,-0.9533 0.372409,-0.3911 0.949642,-0.3911 0.472959,0 0.763438,0.2011 0.294203,0.2049 0.461787,0.581 0.167584,0.3798 0.227169,0.9124 0.05959,0.5325 0.08938,1.1433 h 0.107999 q 0.238341,0 0.394753,-0.086 0.156412,-0.082 0.24579,-0.2383 0.08565,-0.149 0.115446,-0.3575 0.02979,-0.2086 0.02979,-0.4357 0,-0.2756 -0.07448,-0.6145 -0.07076,-0.3389 -0.208548,-0.7001 v -0.037 h 0.7113 q 0.05586,0.2048 0.122895,0.5921 0.06703,0.3873 0.06703,0.7635 0,0.4394 -0.07448,0.7634 -0.07076,0.3277 -0.24579,0.5661 -0.171308,0.2346 -0.443166,0.3575 -0.271859,0.1229 -0.67406,0.1229 z m 1.024124,-0.6964 h 1.158191 q -0.01862,-0.3203 -0.05586,-0.756 -0.03724,-0.432 -0.107999,-0.6852 -0.08565,-0.3017 -0.268134,-0.4879 -0.178756,-0.1862 -0.495304,-0.1862 -0.357512,0 -0.539992,0.216 -0.178756,0.216 -0.178756,0.6592 0,0.3686 0.141515,0.674 0.145239,0.3054 0.34634,0.5661 z"
         id="path4970" />
      <path
         d="m 29.271841,-1287.8048 q -0.05214,-0.1974 -0.08565,-0.432 -0.03352,-0.2309 -0.03352,-0.4134 0,-0.6368 0.342616,-0.9683 0.342616,-0.3314 1.098606,-0.3314 H 32.806 v -0.473 h 0.588405 v 0.473 h 1.195432 v 0.7001 h -1.195432 v 1.445 H 32.806 v -1.445 h -1.895561 q -0.327719,0 -0.513924,0.015 -0.18248,0.015 -0.342616,0.1043 -0.148963,0.082 -0.219721,0.2234 -0.06703,0.1453 -0.06703,0.4395 0,0.1713 0.04841,0.3575 0.05214,0.1862 0.08565,0.2681 v 0.037 z"
         id="path4972" />
      <path
         d="m 29.2346,-1283.511 v -0.7001 h 0.461787 q -0.279307,-0.3538 -0.42827,-0.6778 -0.148964,-0.324 -0.148964,-0.715 0,-0.6554 0.398478,-1.0204 0.402201,-0.3649 1.176811,-0.3649 h 2.699963 v 0.7001 h -2.368519 q -0.316547,0 -0.543717,0.03 -0.223445,0.03 -0.383581,0.1266 -0.16386,0.1005 -0.238341,0.2607 -0.07448,0.1601 -0.07448,0.4655 0,0.2718 0.141515,0.5921 0.141516,0.324 0.361237,0.6033 h 3.105888 v 0.7001 z"
         id="path4974" />
      <path
         d="m 32.630967,-1279.5374 v -0.037 q 0.03724,-0.1564 0.05214,-0.3054 0.01862,-0.1452 0.01862,-0.3463 0,-0.324 -0.145239,-0.6257 -0.141516,-0.3016 -0.368685,-0.5809 H 29.2346 v -0.7001 h 4.159805 v 0.7001 h -0.614474 q 0.335168,0.4171 0.472959,0.7336 0.141515,0.3203 0.141515,0.6518 0,0.1824 -0.01117,0.2644 -0.0074,0.082 -0.03352,0.2457 z"
         id="path4976" />
      <path
         d="m 31.241883,-1275.3962 v -3.0649 q -0.383581,0 -0.670336,0.1155 -0.28303,0.1154 -0.465511,0.3165 -0.178756,0.1937 -0.268134,0.4581 -0.08938,0.2681 -0.08938,0.5884 0,0.4245 0.167584,0.8528 0.171308,0.432 0.335168,0.6145 v 0.037 h -0.763438 q -0.148963,-0.3538 -0.249514,-0.7225 -0.10055,-0.3687 -0.10055,-0.7746 0,-1.0353 0.558613,-1.6162 0.562337,-0.581 1.593909,-0.581 1.0204,0 1.619978,0.5549 0.599578,0.5586 0.599578,1.4673 0,0.8416 -0.49158,1.296 -0.491579,0.458 -1.396532,0.458 z m 0.536269,-0.6815 q 0.551164,-0 0.852815,-0.2793 0.301651,-0.2718 0.301651,-0.8305 0,-0.5623 -0.331443,-0.8975 -0.331444,-0.3314 -0.823023,-0.3761 z"
         id="path4978" />
      <path
         d="m 29.2346,-1270.9608 v -0.7001 h 0.435718 q -0.260686,-0.3017 -0.405925,-0.6294 -0.14524,-0.3277 -0.14524,-0.7113 0,-0.7448 0.57351,-1.1842 0.573509,-0.4358 1.590185,-0.4358 0.52882,0 0.942194,0.149 0.413374,0.1527 0.703852,0.4097 0.283031,0.2532 0.431994,0.5884 0.148964,0.3389 0.148964,0.7001 0,0.3277 -0.07076,0.5809 -0.06703,0.2533 -0.212273,0.5326 h 1.802458 v 0.7001 z m 1.024124,-0.7001 h 2.38714 q 0.126619,-0.283 0.175032,-0.5065 0.04841,-0.2234 0.04841,-0.4878 0,-0.5884 -0.40965,-0.9162 -0.409649,-0.3277 -1.161915,-0.3277 -0.741093,0 -1.128398,0.2533 -0.383581,0.2532 -0.383581,0.8118 0,0.2979 0.130343,0.6033 0.134067,0.3054 0.342616,0.5698 z"
         id="path4980" />
    </g>
  </g>
</svg>
