<svg width="23" height="23" viewBox="0 0 23 23" fill="currentColor" xmlns="http://www.w3.org/2000/svg">
<path d="M11.5 23C17.851 23 23 17.851 23 11.5C23 5.14901 17.851 -2.25071e-07 11.5 -5.02681e-07C5.14902 -7.80291e-07 -2.25071e-07 5.14901 -5.02681e-07 11.5C-7.80291e-07 17.851 5.14901 23 11.5 23ZM16.476 10.0625C16.7603 10.0625 17.0382 10.1468 17.2746 10.3048C17.511 10.4627 17.6952 10.6872 17.804 10.9499C17.9128 11.2126 17.9413 11.5016 17.8858 11.7804C17.8304 12.0593 17.6935 12.3154 17.4924 12.5165C17.2914 12.7175 17.0353 12.8544 16.7564 12.9099C16.4776 12.9653 16.1885 12.9369 15.9259 12.8281C15.6632 12.7193 15.4387 12.535 15.2807 12.2986C15.1228 12.0622 15.0385 11.7843 15.0385 11.5C15.0385 11.1188 15.1899 10.7531 15.4595 10.4835C15.7291 10.2139 16.0947 10.0625 16.476 10.0625ZM11.5 10.0625C11.7843 10.0625 12.0622 10.1468 12.2986 10.3048C12.535 10.4627 12.7193 10.6872 12.8281 10.9499C12.9369 11.2126 12.9653 11.5016 12.9099 11.7804C12.8544 12.0593 12.7175 12.3154 12.5165 12.5165C12.3154 12.7175 12.0593 12.8544 11.7804 12.9099C11.5016 12.9653 11.2126 12.9369 10.9499 12.8281C10.6872 12.7193 10.4627 12.535 10.3048 12.2986C10.1468 12.0622 10.0625 11.7843 10.0625 11.5C10.0625 11.1188 10.214 10.7531 10.4835 10.4835C10.7531 10.2139 11.1188 10.0625 11.5 10.0625ZM6.52404 10.0625C6.80835 10.0625 7.08627 10.1468 7.32267 10.3048C7.55907 10.4627 7.74331 10.6872 7.85212 10.9499C7.96092 11.2126 7.98938 11.5016 7.93392 11.7804C7.87845 12.0593 7.74154 12.3154 7.5405 12.5165C7.33947 12.7175 7.08333 12.8544 6.80448 12.9099C6.52563 12.9653 6.2366 12.9369 5.97393 12.8281C5.71126 12.7193 5.48675 12.535 5.3288 12.2986C5.17085 12.0622 5.08654 11.7843 5.08654 11.5C5.08654 11.1187 5.23799 10.7531 5.50757 10.4835C5.77716 10.2139 6.14279 10.0625 6.52404 10.0625Z" fill="white"/>
</svg>
