<svg width="22" height="22" viewBox="0 0 22 22" fill="currentColor" xmlns="http://www.w3.org/2000/svg">
<path d="M11 0C4.93466 0 0 4.93466 0 11C0 17.0653 4.93466 22 11 22C17.0653 22 22 17.0653 22 11C22 4.93466 17.0653 0 11 0ZM15.2308 11.8462H11.8462V15.2308C11.8462 15.4552 11.757 15.6704 11.5983 15.8291C11.4396 15.9878 11.2244 16.0769 11 16.0769C10.7756 16.0769 10.5604 15.9878 10.4017 15.8291C10.243 15.6704 10.1538 15.4552 10.1538 15.2308V11.8462H6.76923C6.54482 11.8462 6.32959 11.757 6.17091 11.5983C6.01223 11.4396 5.92308 11.2244 5.92308 11C5.92308 10.7756 6.01223 10.5604 6.17091 10.4017C6.32959 10.243 6.54482 10.1538 6.76923 10.1538H10.1538V6.76923C10.1538 6.54482 10.243 6.32959 10.4017 6.17091C10.5604 6.01223 10.7756 5.92308 11 5.92308C11.2244 5.92308 11.4396 6.01223 11.5983 6.17091C11.757 6.32959 11.8462 6.54482 11.8462 6.76923V10.1538H15.2308C15.4552 10.1538 15.6704 10.243 15.8291 10.4017C15.9878 10.5604 16.0769 10.7756 16.0769 11C16.0769 11.2244 15.9878 11.4396 15.8291 11.5983C15.6704 11.757 15.4552 11.8462 15.2308 11.8462Z" fill="white"/>
</svg>
