<svg width="23" height="17" viewBox="0 0 23 17" fill="currentColor" xmlns="http://www.w3.org/2000/svg">
<path d="M22.383 7.92497C21.3666 3.32998 19.837 0.87746 17.568 0.207546C17.0911 0.0676448 16.5963 -0.00224846 16.0993 5.51347e-05C15.4423 5.51347e-05 14.8701 0.160106 14.2649 0.329741C13.5356 0.534357 12.7071 0.766766 11.499 0.766766C10.291 0.766766 9.46196 0.534836 8.73119 0.33022C8.12549 0.160106 7.55381 5.51347e-05 6.89875 5.51347e-05C6.38478 -0.00172703 5.87305 0.0679436 5.37827 0.207067C3.12126 0.874105 1.59263 3.32566 0.561405 7.92209C-0.547451 12.8683 -0.00164866 15.9912 2.09195 16.7158C2.37893 16.8169 2.68088 16.8691 2.98517 16.8701C4.4194 16.8701 5.56946 15.6755 6.35534 14.6974C7.24329 13.5905 8.28266 13.0289 11.499 13.0289C14.3718 13.0289 15.5607 13.4185 16.5876 14.6974C17.2331 15.5015 17.8431 16.0641 18.4516 16.4182C19.261 16.8888 20.0699 16.9932 20.8553 16.7235C22.0926 16.3013 22.8018 15.1852 22.9637 13.4055C23.0869 12.0408 22.8971 10.2481 22.383 7.92497ZM9.19888 7.66716H7.66546V9.20058C7.66546 9.40393 7.58468 9.59895 7.44089 9.74273C7.29711 9.88652 7.10209 9.9673 6.89875 9.9673C6.6954 9.9673 6.50039 9.88652 6.3566 9.74273C6.21282 9.59895 6.13204 9.40393 6.13204 9.20058V7.66716H4.59862C4.39527 7.66716 4.20026 7.58638 4.05647 7.4426C3.91268 7.29881 3.83191 7.1038 3.83191 6.90045C3.83191 6.69711 3.91268 6.50209 4.05647 6.35831C4.20026 6.21452 4.39527 6.13374 4.59862 6.13374H6.13204V4.60032C6.13204 4.39698 6.21282 4.20196 6.3566 4.05817C6.50039 3.91439 6.6954 3.83361 6.89875 3.83361C7.10209 3.83361 7.29711 3.91439 7.44089 4.05817C7.58468 4.20196 7.66546 4.39698 7.66546 4.60032V6.13374H9.19888C9.40222 6.13374 9.59724 6.21452 9.74103 6.35831C9.88481 6.50209 9.96559 6.69711 9.96559 6.90045C9.96559 7.1038 9.88481 7.29881 9.74103 7.4426C9.59724 7.58638 9.40222 7.66716 9.19888 7.66716ZM13.2241 7.85884C13.0346 7.85884 12.8493 7.80263 12.6917 7.69732C12.5341 7.59201 12.4112 7.44233 12.3387 7.26721C12.2661 7.09209 12.2472 6.89939 12.2841 6.71348C12.3211 6.52757 12.4124 6.3568 12.5464 6.22277C12.6805 6.08874 12.8512 5.99746 13.0371 5.96048C13.2231 5.9235 13.4157 5.94248 13.5909 6.01502C13.766 6.08756 13.9157 6.21039 14.021 6.368C14.1263 6.52561 14.1825 6.7109 14.1825 6.90045C14.1825 7.15463 14.0815 7.3984 13.9018 7.57814C13.7221 7.75787 13.4783 7.85884 13.2241 7.85884ZM15.3326 9.9673C15.1429 9.96729 14.9575 9.91103 14.7999 9.80561C14.6422 9.70019 14.5194 9.55037 14.4469 9.37511C14.3744 9.19985 14.3556 9.00703 14.3928 8.82105C14.4299 8.63508 14.5215 8.46431 14.6557 8.33038C14.79 8.19644 14.961 8.10535 15.1471 8.06864C15.3331 8.03193 15.5259 8.05126 15.701 8.12416C15.8761 8.19707 16.0256 8.32028 16.1306 8.4782C16.2356 8.63612 16.2914 8.82165 16.291 9.0113C16.2903 9.26507 16.1891 9.50822 16.0094 9.68744C15.8297 9.86665 15.5863 9.9673 15.3326 9.9673ZM15.3326 5.75039C15.143 5.75039 14.9577 5.69418 14.8001 5.58887C14.6425 5.48356 14.5197 5.33388 14.4471 5.15876C14.3746 4.98363 14.3556 4.79093 14.3926 4.60503C14.4296 4.41912 14.5209 4.24835 14.6549 4.11431C14.7889 3.98028 14.9597 3.889 15.1456 3.85202C15.3315 3.81504 15.5242 3.83402 15.6993 3.90656C15.8744 3.9791 16.0241 4.10194 16.1294 4.25955C16.2347 4.41715 16.291 4.60245 16.291 4.792C16.291 5.04618 16.19 5.28995 16.0103 5.46968C15.8305 5.64941 15.5867 5.75039 15.3326 5.75039ZM17.441 7.85884C17.2515 7.85884 17.0662 7.80263 16.9086 7.69732C16.751 7.59201 16.6281 7.44233 16.5556 7.26721C16.483 7.09209 16.4641 6.89939 16.501 6.71348C16.538 6.52757 16.6293 6.3568 16.7633 6.22277C16.8974 6.08874 17.0681 5.99746 17.254 5.96048C17.44 5.9235 17.6327 5.94248 17.8078 6.01502C17.9829 6.08756 18.1326 6.21039 18.2379 6.368C18.3432 6.52561 18.3994 6.7109 18.3994 6.90045C18.3994 7.15463 18.2984 7.3984 18.1187 7.57814C17.939 7.75787 17.6952 7.85884 17.441 7.85884Z" fill="white"/>
</svg>
