<svg width="25" height="19" viewBox="0 0 25 19" fill="currentColor" xmlns="http://www.w3.org/2000/svg">
<path d="M16.6665 9.2857C15.5957 9.2857 14.5603 8.80137 13.7499 7.92239C12.9619 7.06505 12.4806 5.92175 12.3957 4.70405C12.3051 3.40511 12.6962 2.21063 13.4967 1.3401C14.2973 0.469561 15.4165 0 16.6665 0C17.9077 0 19.0301 0.478003 19.828 1.34643C20.6337 2.22329 21.0259 3.41566 20.9352 4.70353C20.8483 5.9228 20.3675 7.06558 19.5811 7.92187C18.7728 8.80137 17.7379 9.2857 16.6665 9.2857ZM23.5326 18.5714H9.80093C9.58016 18.5726 9.36205 18.5225 9.16341 18.4249C8.96476 18.3273 8.79086 18.1848 8.6551 18.0085C8.5111 17.8173 8.41165 17.5956 8.3642 17.3599C8.31676 17.1243 8.32255 16.8808 8.38115 16.6478C8.81969 14.864 9.90614 13.3846 11.5228 12.37C12.9577 11.47 14.7842 10.974 16.6665 10.974C18.5858 10.974 20.3644 11.4488 21.8076 12.3484C23.4279 13.3577 24.516 14.8455 24.9524 16.651C25.0103 16.8842 25.0154 17.1276 24.9675 17.3631C24.9195 17.5986 24.8196 17.8201 24.6753 18.0111C24.5397 18.1866 24.3662 18.3284 24.1681 18.4255C23.9701 18.5227 23.7527 18.5726 23.5326 18.5714ZM6.82282 9.49674C4.99002 9.49674 3.37857 7.77045 3.22909 5.64898C3.15513 4.56213 3.48951 3.55706 4.16659 2.82C4.83637 2.09034 5.78116 1.68831 6.82282 1.68831C7.86448 1.68831 8.80198 2.09245 9.47541 2.82634C10.1577 3.56919 10.491 4.57215 10.4129 5.65003C10.2634 7.77097 8.6525 9.49674 6.82282 9.49674ZM10.2426 11.156C9.32645 10.7023 8.1374 10.4754 6.82334 10.4754C5.28897 10.4754 3.79888 10.8806 2.62701 11.6161C1.29837 12.4513 0.404626 13.6674 0.0436905 15.1357C-0.00912944 15.3469 -0.0141253 15.5675 0.0290767 15.7809C0.0722788 15.9943 0.16256 16.1951 0.293168 16.3682C0.417099 16.5293 0.575867 16.6596 0.757263 16.7488C0.938659 16.8381 1.13785 16.884 1.33952 16.8831H7.12074C7.21831 16.8831 7.31279 16.8484 7.3877 16.785C7.4626 16.7217 7.51319 16.6337 7.53063 16.5365C7.53636 16.5032 7.54365 16.47 7.55198 16.4373C7.99365 14.6403 9.02854 13.1219 10.5577 12.015C10.6139 11.9739 10.6592 11.9193 10.6893 11.856C10.7194 11.7928 10.7335 11.7229 10.7303 11.6527C10.727 11.5826 10.7065 11.5144 10.6706 11.4542C10.6348 11.3941 10.5847 11.344 10.5249 11.3085C10.4431 11.26 10.3494 11.2088 10.2426 11.156Z" fill="white"/>
</svg>
