<svg width="22" height="22" viewBox="0 0 22 22" fill="currentColor" xmlns="http://www.w3.org/2000/svg">
<path d="M12.9319 1.44375C12.364 -0.48125 9.636 -0.48125 9.06812 1.44375L8.93062 1.91125C8.84578 2.19944 8.6975 2.46499 8.49666 2.68842C8.29583 2.91184 8.04753 3.08749 7.76998 3.20246C7.49243 3.31744 7.19266 3.36883 6.89266 3.35288C6.59266 3.33692 6.30004 3.25402 6.03625 3.11025L5.61 2.8765C3.84588 1.91675 1.91675 3.84588 2.87788 5.60862L3.11025 6.03625C3.7235 7.16375 3.14188 8.56763 1.91125 8.93062L1.44375 9.06812C-0.48125 9.636 -0.48125 12.364 1.44375 12.9319L1.91125 13.0694C2.19944 13.1542 2.46499 13.3025 2.68842 13.5033C2.91184 13.7042 3.08749 13.9525 3.20246 14.23C3.31744 14.5076 3.36883 14.8073 3.35288 15.1073C3.33692 15.4073 3.25402 15.7 3.11025 15.9637L2.8765 16.39C1.91675 18.1541 3.84588 20.0833 5.60862 19.1221L6.03625 18.8898C6.30004 18.746 6.59266 18.6631 6.89266 18.6471C7.19266 18.6312 7.49243 18.6826 7.76998 18.7975C8.04753 18.9125 8.29583 19.0882 8.49666 19.3116C8.6975 19.535 8.84578 19.8006 8.93062 20.0888L9.06812 20.5562C9.636 22.4813 12.364 22.4813 12.9319 20.5562L13.0694 20.0888C13.1542 19.8006 13.3025 19.535 13.5033 19.3116C13.7042 19.0882 13.9525 18.9125 14.23 18.7975C14.5076 18.6826 14.8073 18.6312 15.1073 18.6471C15.4073 18.6631 15.7 18.746 15.9637 18.8898L16.39 19.1235C18.1541 20.0833 20.0833 18.1541 19.1221 16.3914L18.8898 15.9637C18.746 15.7 18.6631 15.4073 18.6471 15.1073C18.6312 14.8073 18.6826 14.5076 18.7975 14.23C18.9125 13.9525 19.0882 13.7042 19.3116 13.5033C19.535 13.3025 19.8006 13.1542 20.0888 13.0694L20.5562 12.9319C22.4813 12.364 22.4813 9.636 20.5562 9.06812L20.0888 8.93062C19.8006 8.84578 19.535 8.6975 19.3116 8.49666C19.0882 8.29583 18.9125 8.04753 18.7975 7.76998C18.6826 7.49243 18.6312 7.19266 18.6471 6.89266C18.6631 6.59266 18.746 6.30004 18.8898 6.03625L19.1235 5.61C20.0833 3.84588 18.1541 1.91675 16.3914 2.87788L15.9637 3.11025C15.7 3.25402 15.4073 3.33692 15.1073 3.35288C14.8073 3.36883 14.5076 3.31744 14.23 3.20246C13.9525 3.08749 13.7042 2.91184 13.5033 2.68842C13.3025 2.46499 13.1542 2.19944 13.0694 1.91125L12.9319 1.44375ZM11 15.0287C9.93151 15.0287 8.90678 14.6043 8.15124 13.8488C7.39571 13.0932 6.97125 12.0685 6.97125 11C6.97125 9.93151 7.39571 8.90678 8.15124 8.15124C8.90678 7.39571 9.93151 6.97125 11 6.97125C12.0681 6.97125 13.0925 7.39556 13.8478 8.15084C14.6031 8.90612 15.0274 9.9305 15.0274 10.9986C15.0274 12.0668 14.6031 13.0911 13.8478 13.8464C13.0925 14.6017 12.0681 15.026 11 15.026V15.0287Z" fill="white"/>
</svg>
