<svg width="20" height="20" viewBox="0 0 20 20" fill="currentColor" xmlns="http://www.w3.org/2000/svg">
<path d="M6.5625 1.75C5.28615 1.75 4.06207 2.25703 3.15955 3.15955C2.25703 4.06207 1.75 5.28615 1.75 6.5625V13.4375C1.75 14.7139 2.25703 15.9379 3.15955 16.8405C4.06207 17.743 5.28615 18.25 6.5625 18.25H13.4375C14.7139 18.25 15.9379 17.743 16.8405 16.8405C17.743 15.9379 18.25 14.7139 18.25 13.4375V10C18.25 9.81766 18.3224 9.6428 18.4514 9.51386C18.5803 9.38493 18.7552 9.3125 18.9375 9.3125C19.1198 9.3125 19.2947 9.38493 19.4236 9.51386C19.5526 9.6428 19.625 9.81766 19.625 10V13.4375C19.625 15.0785 18.9731 16.6523 17.8127 17.8127C16.6523 18.9731 15.0785 19.625 13.4375 19.625H6.5625C4.92147 19.625 3.34766 18.9731 2.18728 17.8127C1.0269 16.6523 0.375 15.0785 0.375 13.4375V6.5625C0.375 4.92147 1.0269 3.34766 2.18728 2.18728C3.34766 1.0269 4.92147 0.375 6.5625 0.375H10C10.1823 0.375 10.3572 0.447433 10.4861 0.576364C10.6151 0.705295 10.6875 0.880164 10.6875 1.0625C10.6875 1.24484 10.6151 1.4197 10.4861 1.54864C10.3572 1.67757 10.1823 1.75 10 1.75H6.5625Z" fill="white"/>
</svg>
