<svg width="22" height="19" viewBox="0 0 22 19" fill="currentColor" xmlns="http://www.w3.org/2000/svg">
<path d="M18.8571 0H3.14286C2.3096 0.000909884 1.51073 0.332324 0.921526 0.921527C0.332323 1.51073 0.000909884 2.3096 0 3.14286V15.7143C0.000909884 16.5475 0.332323 17.3464 0.921526 17.9356C1.51073 18.5248 2.3096 18.8562 3.14286 18.8571H18.8571C19.6904 18.8562 20.4893 18.5248 21.0785 17.9356C21.6677 17.3464 21.9991 16.5475 22 15.7143V3.14286C21.9991 2.3096 21.6677 1.51073 21.0785 0.921527C20.4893 0.332324 19.6904 0.000909884 18.8571 0ZM14.9286 3.14286C15.3948 3.14286 15.8505 3.2811 16.2381 3.54011C16.6258 3.79911 16.9279 4.16725 17.1063 4.59796C17.2847 5.02867 17.3314 5.50261 17.2404 5.95986C17.1495 6.4171 16.925 6.8371 16.5953 7.16675C16.2657 7.4964 15.8457 7.7209 15.3884 7.81185C14.9312 7.9028 14.4572 7.85612 14.0265 7.67772C13.5958 7.49931 13.2277 7.19719 12.9687 6.80956C12.7097 6.42193 12.5714 5.9662 12.5714 5.5C12.5721 4.87505 12.8206 4.27588 13.2625 3.83397C13.7044 3.39206 14.3036 3.14351 14.9286 3.14286ZM3.14286 17.2857C2.72609 17.2857 2.32639 17.1202 2.03169 16.8255C1.73699 16.5308 1.57143 16.1311 1.57143 15.7143V12.3932L6.22875 8.25344C6.6781 7.85491 7.26249 7.6427 7.86286 7.66004C8.46322 7.67737 9.03439 7.92295 9.46 8.34674L12.6495 11.5294L6.89317 17.2857H3.14286ZM20.4286 15.7143C20.4286 16.1311 20.263 16.5308 19.9683 16.8255C19.6736 17.1202 19.2739 17.2857 18.8571 17.2857H9.11576L15.0783 11.3231C15.5005 10.9641 16.0362 10.7663 16.5904 10.7649C17.1446 10.7635 17.6813 10.9585 18.1053 11.3153L20.4286 13.2511V15.7143Z" fill="white"/>
</svg>
