<svg width="18" height="24" viewBox="0 0 18 24" fill="currentColor" xmlns="http://www.w3.org/2000/svg">
<path d="M5.87145 24C5.73436 24.0001 5.59891 23.9709 5.47462 23.9143C5.35032 23.8578 5.2402 23.7753 5.15199 23.6728C5.06377 23.5702 4.99961 23.4499 4.964 23.3205C4.92839 23.1911 4.9222 23.0556 4.94587 22.9236V22.9181L6.38333 15.2006H0.818102C0.663628 15.2006 0.512315 15.1578 0.381663 15.0772C0.251012 14.9967 0.146361 14.8816 0.0798147 14.7453C0.0132683 14.609 -0.0124546 14.457 0.00562154 14.307C0.0236977 14.1571 0.0848342 14.0151 0.18196 13.8977L11.3896 0.35161C11.5172 0.193283 11.6943 0.0801648 11.8938 0.0295543C12.0934 -0.0210563 12.3044 -0.00637369 12.4946 0.0713568C12.6848 0.149087 12.8437 0.285587 12.9471 0.459983C13.0504 0.634378 13.0925 0.83707 13.0669 1.03706C13.0669 1.05206 13.0628 1.06656 13.0603 1.08156L11.6177 8.80103H17.1819C17.3364 8.80105 17.4877 8.84382 17.6183 8.9244C17.749 9.00498 17.8536 9.12007 17.9202 9.25637C17.9867 9.39267 18.0125 9.5446 17.9944 9.69459C17.9763 9.84458 17.9152 9.9865 17.818 10.1039L6.60884 23.65C6.52077 23.7588 6.40872 23.8468 6.28105 23.9074C6.15338 23.968 6.01337 23.9996 5.87145 24Z" fill="white"/>
</svg>
