<svg width="22" height="25" viewBox="0 0 22 25" fill="currentColor" xmlns="http://www.w3.org/2000/svg">
<path d="M17.9903 16.0494C16.9446 16.0491 15.9405 16.4652 15.1932 17.2085L7.90872 13.0459C8.05841 12.4181 8.05841 11.763 7.90872 11.1352L15.1909 6.97256C15.8712 7.64514 16.7649 8.04965 17.7119 8.11369C18.6589 8.17772 19.5974 7.89709 20.3593 7.32204C21.1213 6.74699 21.6571 5.91506 21.8706 4.97519C22.0842 4.03532 21.9616 3.04888 21.5249 2.19247C21.0882 1.33606 20.3658 0.665595 19.4871 0.301104C18.6084 -0.0633861 17.6307 -0.0981014 16.7291 0.203173C15.8275 0.504448 15.0608 1.12204 14.5664 1.94539C14.0719 2.76873 13.8819 3.74408 14.0304 4.6968L6.57635 8.95839C5.99086 8.4626 5.27848 8.14666 4.52266 8.04757C3.76685 7.94849 2.9989 8.07037 2.30879 8.39893C1.61867 8.72749 1.03498 9.24913 0.626074 9.90273C0.217172 10.5563 0 11.3148 0 12.0894C0 12.8639 0.217172 13.6224 0.626074 14.276C1.03498 14.9296 1.61867 15.4513 2.30879 15.7798C2.9989 16.1084 3.76685 16.2303 4.52266 16.1312C5.27848 16.0321 5.99086 15.7162 6.57635 15.2204L14.0304 19.4843C13.9015 20.3074 14.0241 21.1508 14.3815 21.9009C14.7389 22.651 15.3139 23.2717 16.0292 23.6793C16.7444 24.0869 17.5654 24.2619 18.3815 24.1805C19.1976 24.0992 19.9696 23.7656 20.5933 23.2245C21.217 22.6835 21.6626 21.9611 21.8698 21.1547C22.0771 20.3484 22.0361 19.4968 21.7524 18.7148C21.4687 17.9329 20.956 17.2581 20.2833 16.7815C19.6106 16.3049 18.8103 16.0494 17.9903 16.0494Z" fill="white"/>
</svg>
