<svg width="22" height="20" viewBox="0 0 22 20" fill="currentColor" xmlns="http://www.w3.org/2000/svg">
<path d="M3.14286 2.7491H18.8571C19.0407 2.74901 19.2241 2.76066 19.4062 2.78397C19.3444 2.35073 19.1956 1.93448 18.9687 1.56031C18.7418 1.18614 18.4414 0.861803 18.0857 0.606853C17.73 0.351902 17.3264 0.17162 16.8992 0.0768742C16.472 -0.0178712 16.03 -0.0251169 15.5999 0.0555738L2.67634 2.26196H2.66161C1.85039 2.41709 1.129 2.87606 0.644777 3.54513C1.37431 3.02622 2.2476 2.74794 3.14286 2.7491V2.7491ZM18.8571 3.92767H3.14286C2.3096 3.92858 1.51073 4.25999 0.921526 4.8492C0.332323 5.4384 0.000909884 6.23727 0 7.07053V16.4991C0.000909884 17.3324 0.332323 18.1312 0.921526 18.7204C1.51073 19.3096 2.3096 19.641 3.14286 19.642H18.8571C19.6904 19.641 20.4893 19.3096 21.0785 18.7204C21.6677 18.1312 21.9991 17.3324 22 16.4991V7.07053C21.9991 6.23727 21.6677 5.4384 21.0785 4.8492C20.4893 4.25999 19.6904 3.92858 18.8571 3.92767V3.92767ZM16.5246 13.3562C16.2138 13.3562 15.9099 13.2641 15.6515 13.0914C15.3931 12.9187 15.1917 12.6733 15.0727 12.3862C14.9538 12.099 14.9227 11.7831 14.9833 11.4782C15.044 11.1734 15.1936 10.8934 15.4134 10.6736C15.6332 10.4539 15.9132 10.3042 16.218 10.2436C16.5228 10.1829 16.8388 10.2141 17.1259 10.333C17.4131 10.4519 17.6585 10.6534 17.8311 10.9118C18.0038 11.1702 18.096 11.474 18.096 11.7848C18.096 12.2016 17.9304 12.6013 17.6357 12.896C17.341 13.1907 16.9413 13.3562 16.5246 13.3562Z" fill="white"/>
<path d="M0.0234375 10.3854V5.49923C0.0234375 4.43508 0.612723 2.65102 2.65804 2.26455C4.39397 1.93896 6.11272 1.93896 6.11272 1.93896C6.11272 1.93896 7.24219 2.72468 6.30915 2.72468C5.37612 2.72468 5.40067 3.9278 6.30915 3.9278C7.21763 3.9278 6.30915 5.08182 6.30915 5.08182L2.65067 9.23138L0.0234375 10.3854Z" fill="white"/>
</svg>
