<svg width="188" height="38" viewBox="0 0 188 38" fill="none" xmlns="http://www.w3.org/2000/svg">
<path fill-rule="evenodd" clip-rule="evenodd" d="M37.4446 18.647C37.4446 28.9455 29.0626 37.294 18.7226 37.294C8.38259 37.294 0 28.9455 0 18.647C0 8.34844 8.38259 0 18.7226 0C29.0626 0 37.4446 8.34844 37.4446 18.647Z" fill="#29296E"/>
<path fill-rule="evenodd" clip-rule="evenodd" d="M27.4351 13.6611L26.959 12.1961C26.8622 11.8982 26.6261 11.6664 26.3259 11.5749L24.8478 11.1222C24.6433 11.06 24.6416 10.7725 24.8445 10.707L26.3159 10.2328C26.6145 10.1364 26.8473 9.90128 26.9396 9.60224L27.3936 8.13015C27.4561 7.92693 27.7447 7.92473 27.8105 8.1274L28.2866 9.59232C28.3833 9.88972 28.6195 10.1216 28.9197 10.2135L30.3977 10.6657C30.6023 10.7285 30.6045 11.0154 30.401 11.0809L28.9297 11.5551C28.6311 11.6515 28.3983 11.8872 28.3059 12.1862L27.852 13.6578C27.7895 13.8615 27.5009 13.8637 27.4351 13.6611Z" fill="#FAFAFA"/>
<path fill-rule="evenodd" clip-rule="evenodd" d="M1.70312 18.3514C2.14824 17.4829 3.02852 16.8287 3.94309 16.4151C4.86705 16.0059 5.88281 15.7548 6.88031 15.6733C8.89412 15.4921 10.856 15.8275 12.6431 16.4074C13.5637 16.6805 14.3876 17.06 15.2386 17.4433C15.6522 17.6416 16.0409 17.8663 16.4412 18.0832L17.5471 18.7215C18.7614 19.4628 19.9386 20.1193 21.0445 20.6292C22.1531 21.1348 23.155 21.4768 24.0995 21.6514C25.0439 21.8282 26.0038 21.826 27.1843 21.5561C28.3554 21.2923 29.6731 20.7234 31.0505 19.9937C32.4361 19.2634 33.8572 18.368 35.4784 17.4929C35.3159 19.3218 34.7961 21.0368 33.9844 22.6928C33.1528 24.329 31.996 25.925 30.3095 27.2176C28.6551 28.5206 26.3831 29.4287 24.0701 29.5653C21.7561 29.7212 19.5548 29.2134 17.682 28.4495C15.802 27.6747 14.1775 26.6564 12.7376 25.5323C12.3401 25.2217 12.1266 25.0455 11.833 24.7982L11.013 24.0828C10.4606 23.6522 9.92536 23.1372 9.3785 22.7104C8.28755 21.8023 7.20821 20.8925 6.02491 20.1038C5.42829 19.7029 4.81287 19.3312 4.11505 19.0018C3.76836 18.8427 3.4001 18.6945 3.00475 18.5778C2.6 18.4462 2.18861 18.368 1.70312 18.3514Z" fill="#FF4F0A"/>
<path fill-rule="evenodd" clip-rule="evenodd" d="M1.70312 18.3515C1.93038 16.4697 2.81122 14.7046 4.22288 13.2022C5.62735 11.7142 7.82142 10.567 10.256 10.415C11.4576 10.3352 12.6773 10.4684 13.7987 10.778C14.9151 11.0864 15.9613 11.5357 16.904 12.065C17.3751 12.331 17.8158 12.6218 18.2549 12.9153L19.4249 13.7976L21.2513 15.2328C22.4368 16.1728 23.5681 17.0424 24.6137 17.7606C25.6693 18.4798 26.5683 19.0052 27.4271 19.3131C28.278 19.649 29.3529 19.7349 30.774 19.3792C31.4796 19.2173 32.2155 18.9215 33.0007 18.601C33.7815 18.2728 34.5921 17.8812 35.4784 17.4929C35.3717 18.4391 35.1787 19.3814 34.8121 20.262C34.4599 21.1547 33.996 22.0282 33.3474 22.8427C33.0156 23.2392 32.6601 23.6379 32.2454 24.0058C31.8307 24.3649 31.3712 24.7058 30.8636 25.0048C29.8511 25.5891 28.6502 26.0159 27.4182 26.1679C26.1863 26.3221 24.9493 26.245 23.823 26.0071C22.6906 25.7758 21.6588 25.403 20.7116 24.9723C18.8238 24.0978 17.2446 22.9985 15.8485 21.8348C15.1473 21.2538 14.4899 20.6469 13.8673 20.0307L13.1319 19.2955C12.9101 19.0823 12.6862 18.8681 12.4645 18.672C11.5709 17.885 10.7415 17.2837 9.82804 16.9086C8.92122 16.5159 7.7606 16.3546 6.33677 16.62C4.91848 16.8827 3.3625 17.4935 1.70312 18.3515Z" fill="#FAFAFA"/>
<path fill-rule="evenodd" clip-rule="evenodd" d="M9.18447 28.0557C9.18447 28.6125 8.73106 29.0641 8.17204 29.0641C7.61302 29.0641 7.16016 28.6125 7.16016 28.0557C7.16016 27.499 7.61302 27.0474 8.17204 27.0474C8.73106 27.0474 9.18447 27.499 9.18447 28.0557Z" fill="#FAFAFA"/>
<path fill-rule="evenodd" clip-rule="evenodd" d="M9.18447 28.0557C9.18447 28.6125 8.73106 29.0641 8.17204 29.0641C7.61302 29.0641 7.16016 28.6125 7.16016 28.0557C7.16016 27.499 7.61302 27.0474 8.17204 27.0474C8.73106 27.0474 9.18447 27.499 9.18447 28.0557Z" fill="#FAFAFA"/>
<path fill-rule="evenodd" clip-rule="evenodd" d="M65.3574 19.1559C64.6761 18.7137 63.4398 18.1558 61.6482 17.4823C59.8562 16.8087 58.6126 16.204 57.9164 15.6682C57.2208 15.1323 56.8725 14.3922 56.8725 13.4482C56.8725 12.5043 57.2253 11.7597 57.9314 11.2139C58.6369 10.6682 59.5675 10.3955 60.7226 10.3955C61.8777 10.3955 62.8177 10.7078 63.5432 11.3318C64.2692 11.9563 64.6319 12.8435 64.6319 13.994H67.4602C67.4602 12.018 66.8033 10.4715 65.4906 9.35578C64.1774 8.24001 62.596 7.68213 60.7447 7.68213C58.894 7.68213 57.3215 8.20036 56.0287 9.23793C54.7354 10.2755 54.089 11.6688 54.089 13.419C54.089 14.776 54.4241 15.8521 55.0959 16.649C55.4509 17.0714 55.7915 17.4283 56.1172 17.718C56.4434 18.0082 57.1291 18.4064 58.1758 18.9125C59.2219 19.4192 60.1105 19.7606 60.8409 19.9374C62.2471 20.5388 63.4 21.0289 64.1359 21.5598C64.8708 22.0907 65.239 22.821 65.239 23.7501C65.239 24.6791 64.8564 25.4292 64.0911 25.9992C63.3264 26.5692 62.2703 26.8545 60.9228 26.8545C59.5753 26.8545 58.4766 26.518 57.6278 25.8445C56.7785 25.1709 56.3544 24.2099 56.3544 22.9609H53.541C53.541 25.0553 54.2637 26.6876 55.7102 27.8574C57.1561 29.0277 58.9012 29.6125 60.9449 29.6125C62.988 29.6125 64.6861 29.0767 66.0386 28.005C67.3911 26.9333 68.0596 25.4733 68.0452 23.6245C68.0303 21.7763 67.1345 20.2866 65.3574 19.1559Z" fill="white"/>
<path fill-rule="evenodd" clip-rule="evenodd" d="M84.0854 8.27637H70.127V10.9198H75.7133V29.2182H78.4697V10.9198H84.0854V8.27637Z" fill="white"/>
<path fill-rule="evenodd" clip-rule="evenodd" d="M91.3582 8.27637L83.6016 29.2182H86.578C86.578 29.2182 87.3339 26.8881 87.9471 25.9354C90.6117 21.7989 95.0419 21.2944 96.4657 21.3324L99.3051 29.2182H102.282L94.5105 8.27637H91.3582ZM89.6673 20.6396L92.9418 11.5477L95.5075 18.6718C94.0444 18.7787 91.9117 19.2171 89.6673 20.6396Z" fill="white"/>
<path fill-rule="evenodd" clip-rule="evenodd" d="M138.6 8.27637H135.169L126.401 17.7687V8.27637H123.615V29.2182H126.401V19.1708L135.477 29.2182H138.893L129.319 18.4846L138.6 8.27637Z" fill="white"/>
<path fill-rule="evenodd" clip-rule="evenodd" d="M152.427 21.2005L144.23 8.27612H141.078V29.218H145.227V16.2644L153.394 29.218H156.547V8.27612H152.427V21.2005Z" fill="white"/>
<path fill-rule="evenodd" clip-rule="evenodd" d="M163.261 20.5726H170.68V16.7176H163.261V12.2341H171.428V8.27661H159.111V29.2179H171.574V25.2753H163.261V20.5726Z" fill="white"/>
<path fill-rule="evenodd" clip-rule="evenodd" d="M173.703 8.27612V12.2342H178.746V29.218H182.882V12.2342H187.955V8.27612H173.703Z" fill="white"/>
<path fill-rule="evenodd" clip-rule="evenodd" d="M114.898 21.679C114.473 21.288 114.042 20.9482 113.61 20.6492C114.966 20.4498 116.427 19.7119 117.368 18.5135C118.225 17.4214 118.6 16.1476 118.6 14.7752C118.6 12.9737 117.959 11.4405 116.679 10.175C115.398 8.90939 113.859 8.27661 112.06 8.27661H104.406V29.2179H107.192V21.3205C108.715 21.3558 110.981 21.7385 113.063 23.655C115.06 25.4956 116.439 27.7822 117.15 29.2168H120.109C119.496 27.6318 117.74 24.2972 114.898 21.679ZM112.06 10.8904C113.096 10.8904 113.981 11.2681 114.714 12.0221C115.447 12.7766 115.813 13.6919 115.813 14.7675C115.813 15.8436 115.458 16.777 114.714 17.5348C113.387 18.8863 110.318 18.617 107.274 18.6308C107.247 18.6302 107.219 18.6291 107.192 18.6286V10.8904H112.06Z" fill="white"/>
</svg>
